<svg width="24" height="23" viewBox="0 0 24 23" fill="none" xmlns="http://www.w3.org/2000/svg">
<path d="M17.1474 15.221C18.4791 13.4039 19.0755 11.151 18.8174 8.91299C18.5593 6.675 17.4657 4.61699 15.7553 3.15069C14.045 1.68439 11.8441 0.91794 9.59296 1.00468C7.34181 1.09142 5.20641 2.02496 3.61399 3.61851C2.02157 5.21207 1.08957 7.34814 1.00444 9.59935C0.919307 11.8506 1.68733 14.0509 3.15485 15.7602C4.62237 17.4695 6.68117 18.5616 8.91934 18.8181C11.1575 19.0746 13.41 18.4766 15.2262 17.1436H15.2248C15.2661 17.1986 15.3101 17.2509 15.3596 17.3018L20.6543 22.5965C20.9122 22.8545 21.262 22.9996 21.6268 22.9997C21.9916 22.9998 22.3415 22.855 22.5996 22.5972C22.8576 22.3393 23.0027 21.9895 23.0028 21.6247C23.0029 21.2599 22.8581 20.9099 22.6003 20.6519L17.3056 15.3572C17.2564 15.3074 17.2035 15.2614 17.1474 15.2197V15.221ZM17.5022 9.93459C17.5022 10.9279 17.3066 11.9115 16.9265 12.8292C16.5463 13.7468 15.9892 14.5807 15.2868 15.283C14.5845 15.9854 13.7506 16.5426 12.8329 16.9227C11.9152 17.3028 10.9317 17.4984 9.93837 17.4984C8.94508 17.4984 7.9615 17.3028 7.04382 16.9227C6.12613 16.5426 5.29229 15.9854 4.58993 15.283C3.88756 14.5807 3.33041 13.7468 2.95029 12.8292C2.57017 11.9115 2.37453 10.9279 2.37453 9.93459C2.37453 7.92854 3.17143 6.00464 4.58993 4.58614C6.00842 3.16765 7.93232 2.37074 9.93837 2.37074C11.9444 2.37074 13.8683 3.16765 15.2868 4.58614C16.7053 6.00464 17.5022 7.92854 17.5022 9.93459V9.93459Z" fill="#73777D"/>
</svg>
